<svg id="add" xmlns="http://www.w3.org/2000/svg" width="12.914" height="12.914" viewBox="0 0 12.914 12.914">
  <g id="Groupe_33" data-name="Groupe 33">
    <g id="Groupe_32" data-name="Groupe 32">
      <path id="Tracé_11" data-name="Tracé 11" d="M10.608,0h-8.3A2.309,2.309,0,0,0,0,2.306v8.3a2.309,2.309,0,0,0,2.306,2.306h8.3a2.309,2.309,0,0,0,2.306-2.306v-8.3A2.309,2.309,0,0,0,10.608,0Zm1.384,10.608a1.384,1.384,0,0,1-1.384,1.384h-8.3A1.384,1.384,0,0,1,.922,10.608v-8.3A1.384,1.384,0,0,1,2.306.922h8.3a1.384,1.384,0,0,1,1.384,1.384Z" fill="#707070"/>
    </g>
  </g>
  <g id="Groupe_35" data-name="Groupe 35" transform="translate(3.69 3.69)">
    <g id="Groupe_34" data-name="Groupe 34">
      <path id="Tracé_12" data-name="Tracé 12" d="M141.607,138.839h-1.845v-1.845a.461.461,0,0,0-.922,0v1.845h-1.845a.461.461,0,1,0,0,.922h1.845v1.845a.461.461,0,1,0,.922,0v-1.845h1.845a.461.461,0,1,0,0-.922Z" transform="translate(-136.533 -136.533)" fill="#707070"/>
    </g>
  </g>
</svg>
