<svg id="Calque_2" data-name="Calque 2" xmlns="http://www.w3.org/2000/svg" width="11.47" height="12.3" viewBox="0 0 11.47 12.3">
  <g id="Calque_1" data-name="Calque 1">
    <path id="Tracé_292" data-name="Tracé 292" d="M9.17,12.3H2.28a.48.48,0,0,1-.48-.44L1,2.81H0v-1H11.47v1h-1l-.8,9.05A.48.48,0,0,1,9.17,12.3Zm-6.45-1h6l.75-8.53H2ZM7.87,9.9h-1l.21-5.7h1ZM3.6,9.9,3.39,4.2h1L4.6,9.9Zm2.62,0h-1V4.22h1Z" transform="translate(0 0)" fill="#707070"/>
    <path id="Tracé_293" data-name="Tracé 293" d="M8.11,2.33h-1V1H4.32V2.33h-1V.8a.8.8,0,0,1,.8-.8H7.31a.8.8,0,0,1,.8.8Z" fill="#707070"/>
  </g>
</svg>
