<svg id="Calque_2" data-name="Calque 2" xmlns="http://www.w3.org/2000/svg" width="9" height="12.18" viewBox="0 0 9 12.18">
  <g id="Calque_1" data-name="Calque 1">
    <path id="Tracé_291" data-name="Tracé 291" d="M6.88,0H.75A.75.75,0,0,0,0,.75V11.43a.75.75,0,0,0,.75.75H8.26A.75.75,0,0,0,9,11.43V2.31Zm.18,1.12.93,1H7.05ZM8.38,11.43a.12.12,0,0,1-.12.12H.75a.12.12,0,0,1-.12-.12V.75A.12.12,0,0,1,.75.63H6.43V2.44a.31.31,0,0,0,.31.31H8.38ZM1.73,3.34H7.06a.24.24,0,0,1,0,.47H1.73a.24.24,0,1,1,0-.47ZM7.3,5.15a.24.24,0,0,1-.23.23H1.73a.235.235,0,1,1,0-.47H7.06a.24.24,0,0,1,.23.24Zm0,1.53a.24.24,0,0,1-.23.24H1.73a.24.24,0,1,1,0-.47H7.06a.24.24,0,0,1,.23.24Zm0,1.55a.24.24,0,0,1-.23.24H1.73a.24.24,0,1,1,0-.47H7.06a.24.24,0,0,1,.23.23Zm0,0" fill="#707070"/>
  </g>
</svg>
