<svg id="Calque_2" data-name="Calque 2" xmlns="http://www.w3.org/2000/svg" width="12.996" height="12.935" viewBox="0 0 12.996 12.935">
  <g id="Calque_1" data-name="Calque 1" transform="translate(0 0)">
    <path id="Tracé_294" data-name="Tracé 294" d="M12,8.12a.32.32,0,0,0-.32.32v2.87a1,1,0,0,1-1,1H1.62a1,1,0,0,1-1-1V2.88a1,1,0,0,1,1-1H4.49a.325.325,0,1,0,0-.65H1.62A1.62,1.62,0,0,0,0,2.88v8.44a1.62,1.62,0,0,0,1.62,1.62H10.7a1.62,1.62,0,0,0,1.62-1.62V8.44A.32.32,0,0,0,12,8.12Zm0,0" transform="translate(0 -0.005)" fill="#707070"/>
    <path id="Tracé_295" data-name="Tracé 295" d="M12.19.43a1.46,1.46,0,0,0-2.06,0L4.36,6.2a.32.32,0,0,0-.08.14L3.51,9.09a.32.32,0,0,0,.4.4l2.74-.76a.32.32,0,0,0,.14-.08l5.78-5.78a1.46,1.46,0,0,0,0-2.06Zm-7.13,6L9.79,1.69l1.52,1.52L6.59,7.94ZM4.76,7,6,8.24l-1.68.47Zm7.36-4.62-.34.34L10.25,1.23l.34-.34a.81.81,0,0,1,1.14,0l.38.38a.81.81,0,0,1,0,1.14Zm0,0" transform="translate(0 -0.005)" fill="#707070"/>
  </g>
</svg>
