<svg xmlns="http://www.w3.org/2000/svg" width="49.965" height="49.965" viewBox="0 0 49.965 49.965">
  <g id="Groupe_30" data-name="Groupe 30" transform="translate(-347.5 -16.492)">
    <g id="Groupe_17" data-name="Groupe 17">
      <path id="Tracé_6" data-name="Tracé 6" d="M41.794,7.172A24.482,24.482,0,1,0,7.171,41.795,24.482,24.482,0,1,0,41.794,7.172ZM24.482,46.016A21.533,21.533,0,1,1,46.015,24.483,21.557,21.557,0,0,1,24.482,46.016Z" transform="translate(348 16.991)" fill="#fff" stroke="#11ece5" stroke-width="1"/>
      <path id="Tracé_10" data-name="Tracé 10" d="M28.3,4.857A16.579,16.579,0,1,0,4.856,28.3,16.579,16.579,0,1,0,28.3,4.857ZM16.579,31.162A14.582,14.582,0,1,1,31.161,16.58,14.6,14.6,0,0,1,16.579,31.162Z" transform="translate(355.806 24.686)" fill="#fff"/>
    </g>
  </g>
</svg>
